<svg width="24" height="25" viewBox="0 0 24 25" fill="none" xmlns="http://www.w3.org/2000/svg">
<path d="M12 3.50023H5C4.46957 3.50023 3.96086 3.71094 3.58579 4.08601C3.21071 4.46109 3 4.96979 3 5.50023V19.5002C3 20.0307 3.21071 20.5394 3.58579 20.9144C3.96086 21.2895 4.46957 21.5002 5 21.5002H19C19.5304 21.5002 20.0391 21.2895 20.4142 20.9144C20.7893 20.5394 21 20.0307 21 19.5002V12.5002M18.375 3.12523C18.7728 2.7274 19.3124 2.50391 19.875 2.50391C20.4376 2.50391 20.9772 2.7274 21.375 3.12523C21.7728 3.52305 21.9963 4.06262 21.9963 4.62523C21.9963 5.18784 21.7728 5.7274 21.375 6.12523L12.362 15.1392C12.1245 15.3765 11.8312 15.5501 11.509 15.6442L8.636 16.4842C8.54995 16.5093 8.45874 16.5108 8.37191 16.4886C8.28508 16.4663 8.20583 16.4212 8.14245 16.3578C8.07907 16.2944 8.03389 16.2151 8.01164 16.1283C7.9894 16.0415 7.9909 15.9503 8.016 15.8642L8.856 12.9912C8.95053 12.6693 9.12453 12.3763 9.362 12.1392L18.375 3.12523Z" stroke="#295BFF" stroke-width="2" stroke-linecap="round" stroke-linejoin="round"/>
</svg>
