<svg width="24" height="25" viewBox="0 0 24 25" fill="none" xmlns="http://www.w3.org/2000/svg">
<path d="M10.2679 21.5001C10.4434 21.8042 10.6959 22.0566 10.9999 22.2321C11.3039 22.4077 11.6488 22.5001 11.9999 22.5001C12.3509 22.5001 12.6958 22.4077 12.9998 22.2321C13.3039 22.0566 13.5563 21.8042 13.7319 21.5001M13.9159 2.81415C13.0134 2.51002 12.0514 2.4251 11.1096 2.56642C10.1677 2.70774 9.27304 3.07124 8.49953 3.62685C7.72601 4.18246 7.09586 4.91423 6.6612 5.76164C6.22654 6.60905 5.99985 7.54776 5.99987 8.50015C5.99987 12.9991 4.58887 14.4561 3.25987 15.8271C3.12944 15.9705 3.04348 16.1486 3.01243 16.3399C2.98138 16.5312 3.00659 16.7274 3.08498 16.9047C3.16338 17.0819 3.29158 17.2325 3.454 17.3383C3.61643 17.444 3.80607 17.5002 3.99987 17.5001H19.9999C20.1937 17.5002 20.3833 17.444 20.5457 17.3383C20.7082 17.2325 20.8364 17.0819 20.9148 16.9047C20.9932 16.7274 21.0184 16.5312 20.9873 16.3399C20.9563 16.1486 20.8703 15.9705 20.7399 15.8271C20.5341 15.6152 20.3388 15.3933 20.1549 15.1621M20.9999 8.50015C20.9999 10.157 19.6567 11.5001 17.9999 11.5001C16.343 11.5001 14.9999 10.157 14.9999 8.50015C14.9999 6.84329 16.343 5.50015 17.9999 5.50015C19.6567 5.50015 20.9999 6.84329 20.9999 8.50015Z" stroke="#4B4040" stroke-width="1.66667" stroke-linecap="round" stroke-linejoin="round"/>
</svg>
